<svg version="1.1" xmlns="http://www.w3.org/2000/svg" viewBox="0 0 198.0896287640403 104.17045349619434" width="396.1792575280806" height="208.34090699238868">
  <defs>
    <style class="style-fonts">
      @font-face {
        font-family: "Virgil";
        src: url("https://excalidraw.com/Virgil.woff2");
      }
      @font-face {
        font-family: "Cascadia";
        src: url("https://excalidraw.com/Cascadia.woff2");
      }
    </style>
    
  </defs>
  <g stroke-linecap="round" transform="translate(10 10) rotate(0 89.04481438202015 42.08522674809717)"><path d="M21.04 0 M21.04 0 C63.39 -0.35, 103.75 0.88, 157.05 0 M21.04 0 C62.03 0.66, 105.97 1.59, 157.05 0 M157.05 0 C170.73 1.88, 177.13 5.59, 178.09 21.04 M157.05 0 C170.91 -0.78, 177.85 6.37, 178.09 21.04 M178.09 21.04 C176.71 31.54, 178.24 38.89, 178.09 63.13 M178.09 21.04 C179.24 29.9, 179.16 37.66, 178.09 63.13 M178.09 63.13 C177.25 78.37, 172.02 85.52, 157.05 84.17 M178.09 63.13 C176.92 77.35, 170.25 84.12, 157.05 84.17 M157.05 84.17 C118.58 85.79, 81.74 85.01, 21.04 84.17 M157.05 84.17 C117.07 85.17, 78.52 84.12, 21.04 84.17 M21.04 84.17 C6.58 83.72, -0.22 75.77, 0 63.13 M21.04 84.17 C5.96 84.26, -1 75.87, 0 63.13 M0 63.13 C1.16 46.57, 2.25 33.49, 0 21.04 M0 63.13 C0.39 49.23, -0.09 34.71, 0 21.04 M0 21.04 C0.9 7.82, 7.01 0.91, 21.04 0 M0 21.04 C-0.6 7.9, 9.25 -0.41, 21.04 0" stroke="#1e1e1e" stroke-width="1" fill="none"></path></g><g transform="translate(30.230833633661632 31.186118046721276) rotate(0 13.695286664510263 20.51250154215495)" stroke="none"><path fill="#1e1e1e" d="M 1.03,-1.75 Q 1.03,-1.75 2.38,-0.99 3.72,-0.23 5.41,0.95 7.10,2.14 9.12,3.64 11.14,5.14 13.31,6.76 15.48,8.39 17.51,9.92 19.55,11.46 21.17,12.67 22.78,13.88 23.97,14.67 25.15,15.46 26.46,16.30 27.76,17.14 28.13,19.18 28.50,21.22 27.17,22.53 25.83,23.83 24.61,24.79 23.39,25.75 21.72,26.99 20.05,28.23 18.31,29.68 16.57,31.13 14.91,32.64 13.26,34.15 11.94,35.49 10.62,36.84 9.77,37.89 8.92,38.95 7.66,40.57 6.40,42.19 6.17,42.42 5.94,42.65 5.65,42.79 5.36,42.94 5.04,42.98 4.72,43.02 4.40,42.96 4.08,42.90 3.80,42.74 3.52,42.58 3.30,42.34 3.09,42.09 2.96,41.80 2.83,41.50 2.81,41.17 2.78,40.85 2.86,40.54 2.94,40.22 3.12,39.95 3.29,39.68 3.55,39.48 3.80,39.27 4.10,39.16 4.41,39.05 4.73,39.05 5.05,39.04 5.36,39.13 5.67,39.23 5.94,39.42 6.20,39.61 6.39,39.87 6.57,40.14 6.67,40.45 6.76,40.76 6.75,41.08 6.74,41.40 6.63,41.71 6.52,42.01 6.31,42.26 6.11,42.51 5.84,42.69 5.56,42.86 5.25,42.94 4.93,43.02 4.61,42.99 4.29,42.96 3.99,42.83 3.70,42.70 3.45,42.49 3.21,42.27 3.06,41.99 2.90,41.70 2.84,41.39 2.78,41.07 2.82,40.75 2.87,40.43 3.01,40.14 3.16,39.85 3.16,39.85 3.16,39.85 4.61,38.12 6.07,36.38 7.07,35.38 8.08,34.37 9.41,32.98 10.74,31.59 12.31,29.92 13.89,28.24 15.53,26.56 17.18,24.87 18.70,23.38 20.22,21.88 21.43,20.85 22.63,19.83 24.41,18.97 26.19,18.11 25.64,19.22 25.09,20.32 24.07,19.26 23.05,18.21 21.99,17.29 20.93,16.36 19.33,15.17 17.72,13.98 15.64,12.52 13.56,11.07 11.34,9.56 9.12,8.05 7.05,6.72 4.98,5.39 3.29,4.38 1.61,3.37 0.28,2.56 -1.03,1.75 -1.22,1.60 -1.42,1.45 -1.57,1.26 -1.72,1.07 -1.83,0.85 -1.93,0.62 -1.98,0.38 -2.03,0.14 -2.01,-0.09 -2.00,-0.34 -1.93,-0.57 -1.86,-0.81 -1.74,-1.02 -1.61,-1.23 -1.44,-1.41 -1.27,-1.58 -1.06,-1.71 -0.85,-1.84 -0.62,-1.92 -0.39,-1.99 -0.14,-2.01 0.09,-2.03 0.34,-1.99 0.58,-1.95 0.80,-1.85 1.03,-1.75 1.03,-1.75 L 1.03,-1.75 Z"></path></g><g stroke-linecap="round"><g transform="translate(27.045351259456538 83.12888544789212) rotate(0 75.22567394932611 0.20819265600013637)"><path d="M1.02 -0.93 C25.93 -0.94, 125.62 -0.31, 150.35 -0.34 M0.1 1.2 C24.86 1.41, 125.19 1.4, 149.96 1.15" stroke="#1e1e1e" stroke-width="4" fill="none"></path></g></g><mask></mask><g transform="translate(67.53959521352931 22.19302549494438) rotate(0 28.697601318359375 29.505594093931848)"><text x="0" y="0" font-family="Virgil, Segoe UI Emoji" font-size="47.208950550290936px" fill="#1e1e1e" text-anchor="start" style="white-space: pre;" direction="ltr" dominant-baseline="text-before-edge">SS</text></g><g transform="translate(125.1178600555562 22.19302549494438) rotate(0 14.112800598144531 29.505594093931848)"><text x="0" y="0" font-family="Virgil, Segoe UI Emoji" font-size="47.208950550290936px" fill="#2f9e44" text-anchor="start" style="white-space: pre;" direction="ltr" dominant-baseline="text-before-edge">X</text></g></svg>